<?xml version="1.0" encoding="UTF-8"?>
<svg width="24px" height="24px" viewBox="0 0 24 24" version="1.1" xmlns="http://www.w3.org/2000/svg" xmlns:xlink="http://www.w3.org/1999/xlink">
    <title>calendar / calendar_plus</title>
    <defs>
        <rect id="path-1" x="0" y="0" width="24" height="24"></rect>
    </defs>
    <g id="Symbols" stroke="none" stroke-width="1" fill="none" fill-rule="evenodd">
        <g id="calendar-/-calendar_plus">
            <mask id="mask-2" fill="white">
                <use xlink:href="#path-1"></use>
            </mask>
            <g id="calendar-/-calendar_plus-(Background/Mask)"></g>
            <path d="M11,16 L11,18 L13,18 L13,16 L15,16 L15,14 L13,14 L13,12 L11,12 L11,14 L9,14 L9,16 L11,16 Z M19,4 L17,4 L17,2 L15,2 L15,4 L9,4 L9,2 L7,2 L7,4 L5,4 C3.89699984,4 3,4.89699984 3,6 L3,20 C3,21.1030006 3.89699984,22 5,22 L19,22 C20.1030006,22 21,21.1030006 21,20 L21,6 C21,4.89699984 20.1030006,4 19,4 L19,4 Z M19.0020008,20 L5,20 L5,10 L19,10 L19.0020008,20 L19.0020008,20 Z M19.0002861,8 L19,6 L5,6 L5,8 L19.0002861,8 L19.0002861,8 Z" fill="#BCC0CA" mask="url(#mask-2)"></path>
        </g>
    </g>
</svg>