<?xml version="1.0" encoding="UTF-8"?>
<svg width="24px" height="24px" viewBox="0 0 24 24" version="1.1" xmlns="http://www.w3.org/2000/svg" xmlns:xlink="http://www.w3.org/1999/xlink">
    <title>basic / slider_02</title>
    <defs>
        <rect id="path-1" x="0" y="0" width="24" height="24"></rect>
    </defs>
    <g id="Symbols" stroke="none" stroke-width="1" fill="none" fill-rule="evenodd">
        <g id="basic-/-slider_02">
            <mask id="mask-2" fill="white">
                <use xlink:href="#path-1"></use>
            </mask>
            <g id="basic-/-slider_02-(Background/Mask)"></g>
            <path d="M9.5,9.5 C11.0855103,9.5 12.4247856,8.44574451 12.8550606,7 L22,7 L22,5 L12.8550606,5 C12.4247856,3.55425549 11.0855103,2.5 9.5,2.5 C7.56700325,2.5 6,4.06700337 6,6 C6,7.93299675 7.56700325,9.5 9.5,9.5 C10.5570068,9.5 10.5570068,9.5 9.5,9.5 Z M11,6 C11,6.82842731 10.3284273,7.5 9.5,7.5 C8.67157269,7.5 8,6.82842731 8,6 C8,5.17157292 8.67157269,4.5 9.5,4.5 C10.3284273,4.5 11,5.17157292 11,6 C11,6.55228488 11,6.55228488 11,6 Z M16.5,15.5 C18.0855103,15.5 19.4247856,14.4457445 19.8550606,13 L22,13 L22,11 L19.8550606,11 C19.4247856,9.55425549 18.0855103,8.5 16.5,8.5 C14.5670033,8.5 13,10.0670033 13,12 C13,13.9329967 14.5670033,15.5 16.5,15.5 C17.5570068,15.5 17.5570068,15.5 16.5,15.5 Z M16.5,13.5 C17.3284273,13.5 18,12.8284273 18,12 C18,11.1715727 17.3284273,10.5 16.5,10.5 C15.6715727,10.5 15,11.1715727 15,12 C15,12.8284273 15.6715727,13.5 16.5,13.5 C17.0522849,13.5 17.0522849,13.5 16.5,13.5 Z M7.5,21.5 C9.43299675,21.5 11,19.9329967 11,18 C11,16.0670033 9.43299675,14.5 7.5,14.5 C5.91448951,14.5 4.57521391,15.5542555 4.14493942,17 L2,17 L2,19 L4.14493942,19 C4.57521391,20.4457455 5.91448951,21.5 7.5,21.5 C8.7886645,21.5 8.7886645,21.5 7.5,21.5 Z M7.5,19.5 C8.32842731,19.5 9,18.8284264 9,18 C9,17.1715727 8.32842731,16.5 7.5,16.5 C6.67157269,16.5 6,17.1715727 6,18 C6,18.8284264 6.67157269,19.5 7.5,19.5 C8.05228488,19.5 8.05228488,19.5 7.5,19.5 Z M22,17 L22,19 L12,19 L12,17 L22,17 Z M2,11 L2,13 L12,13 L12,11 L2,11 Z M2,5 L2,7 L5,7 L5,5 L2,5 Z" fill="#BCC0CA" mask="url(#mask-2)"></path>
        </g>
    </g>
</svg>