<?xml version="1.0" encoding="UTF-8"?>
<svg width="24px" height="24px" viewBox="0 0 24 24" version="1.1" xmlns="http://www.w3.org/2000/svg" xmlns:xlink="http://www.w3.org/1999/xlink">
    <title>edit / add_to_queue</title>
    <defs>
        <rect id="path-1" x="0" y="0" width="24" height="24"></rect>
    </defs>
    <g id="Symbols" stroke="none" stroke-width="1" fill="none" fill-rule="evenodd">
        <g id="edit-/-add_to_queue">
            <mask id="mask-2" fill="white">
                <use xlink:href="#path-1"></use>
            </mask>
            <g id="edit-/-add_to_queue-(Background/Mask)"></g>
            <path d="M15,6 L15,9 L18,9 L18,11 L15,11 L15,14 L13,14 L13,11 L10,11 L10,9 L13,9 L13,6 L15,6 Z M8,2 L20,2 C21.1030006,2 22,2.89699996 22,4 L22,16 C22,17.1029997 21.1030006,18 20,18 L8,18 C6.89699984,18 6,17.1029997 6,16 L6,4 C6,2.89699996 6.89699984,2 8,2 L8,2 Z M8,4 L8,16 L20.0020008,16 L20,4 L8,4 L8,4 Z M4,8 L4,20 L16,20 L16,22 L4,22 C2.89699996,22 2,21.1030006 2,20 L2,8 L4,8 Z" fill="#BCC0CA" mask="url(#mask-2)"></path>
        </g>
    </g>
</svg>