<?xml version="1.0" encoding="UTF-8"?>
<svg width="24px" height="24px" viewBox="0 0 24 24" version="1.1" xmlns="http://www.w3.org/2000/svg" xmlns:xlink="http://www.w3.org/1999/xlink">
    <title>edit / list_plus</title>
    <defs>
        <rect id="path-1" x="0" y="0" width="24" height="24"></rect>
    </defs>
    <g id="Symbols" stroke="none" stroke-width="1" fill="none" fill-rule="evenodd">
        <g id="edit-/-list_plus">
            <mask id="mask-2" fill="white">
                <use xlink:href="#path-1"></use>
            </mask>
            <g id="edit-/-list_plus-(Background/Mask)"></g>
            <path d="M19,12 L17,12 L17,15 L14,15 L14,17 L17,17 L17,20 L19,20 L19,17 L22,17 L22,15 L19,15 L19,12 Z M15,7 L15,9 L2,9 L2,7 L15,7 Z M15,11 L15,13 L2,13 L2,11 L15,11 Z M12,15 L12,17 L2,17 L2,15 L12,15 Z" fill="#2E3A59" mask="url(#mask-2)"></path>
        </g>
    </g>
</svg>