<?xml version="1.0" encoding="UTF-8"?>
<svg width="24px" height="24px" viewBox="0 0 24 24" version="1.1" xmlns="http://www.w3.org/2000/svg" xmlns:xlink="http://www.w3.org/1999/xlink">
    <title>user / user_pin</title>
    <defs>
        <rect id="path-1" x="0" y="0" width="24" height="24"></rect>
    </defs>
    <g id="Symbols" stroke="none" stroke-width="1" fill="none" fill-rule="evenodd">
        <g id="user-/-user_pin">
            <mask id="mask-2" fill="white">
                <use xlink:href="#path-1"></use>
            </mask>
            <g id="user-/-user_pin-(Background/Mask)"></g>
            <path d="M12,10 C10.8499999,10 10,9.15199995 10,8 C10,6.84800005 10.8499999,6 12,6 C13.151,6 14,6.84800005 14,8 C14,9.15199995 13.151,10 12,10 Z M12,11 C14.2089996,11 16,12.6120005 16,14.6000004 L16,14.9860001 L8,14.9860001 L8,14.6000004 C8,12.6120005 9.79099989,11 12,11 Z M5,2 L19,2 C20.1030006,2 21,2.89699996 21,4 L21,17 C21,18.1030006 20.1030006,19 19,19 L15,19 L12,22 L9,19 L5,19 C3.89699996,19 3,18.1030006 3,17 L3,4 C3,2.89699996 3.89699996,2 5,2 L5,2 Z M12,19 L14,17 L19.0020008,17 L19,4 L5,4 L5,17 L10,17 L12,19 L12,19 Z" fill="#2E3A59" mask="url(#mask-2)"></path>
        </g>
    </g>
</svg>