<?xml version="1.0" encoding="UTF-8"?>
<svg width="24px" height="24px" viewBox="0 0 24 24" version="1.1" xmlns="http://www.w3.org/2000/svg" xmlns:xlink="http://www.w3.org/1999/xlink">
    <title>basic / alarm</title>
    <defs>
        <rect id="path-1" x="0" y="0" width="24" height="24"></rect>
    </defs>
    <g id="Symbols" stroke="none" stroke-width="1" fill="none" fill-rule="evenodd">
        <g id="basic-/-alarm">
            <mask id="mask-2" fill="white">
                <use xlink:href="#path-1"></use>
            </mask>
            <g id="basic-/-alarm-(Background/Mask)"></g>
            <path d="M3.00000674,12.9999866 C3.00000674,17.8789868 7.12100649,21.9999866 12.0000067,21.9999866 C16.8790069,21.9999866 21.0000076,17.8789868 21.0000076,12.9999866 C21.0000076,8.12098646 16.8790069,3.99998701 12.0000067,3.99998701 C7.12100649,3.99998701 3.00000674,8.12098646 3.00000674,12.9999866 Z M5.00000668,12.9999866 C5.00000668,9.20598674 8.20600677,5.99998713 12.0000067,5.99998713 C15.7940066,5.99998713 19.0000076,9.20598674 19.0000076,12.9999866 C19.0000076,16.7939866 15.7940066,19.9999866 12.0000067,19.9999866 C8.20600677,19.9999866 5.00000668,16.7939866 5.00000668,12.9999866 Z M13.0000067,7.99998713 L11.0000067,7.99998713 L11.0000067,13.9999866 L17.0000067,13.9999866 L17.0000067,11.9999866 L13.0000067,11.9999866 L13.0000067,7.99998713 Z M18.6960564,2.29071045 L21.7055569,5.29161024 L20.2933693,6.70784616 L17.2838678,3.70694649 L18.6960564,2.29071045 Z M3.70761788,6.70587492 L2.29138184,5.29368663 L5.28169012,2.29480696 L6.69792604,3.70699513 L3.70761788,6.70587492 Z" fill="#B1B2B5" mask="url(#mask-2)"></path>
        </g>
    </g>
</svg>