<?xml version="1.0" encoding="UTF-8"?>
<svg width="24px" height="24px" viewBox="0 0 24 24" version="1.1" xmlns="http://www.w3.org/2000/svg" xmlns:xlink="http://www.w3.org/1999/xlink">
    <title>basic / phone</title>
    <defs>
        <rect id="path-1" x="0" y="0" width="24" height="24"></rect>
    </defs>
    <g id="Symbols" stroke="none" stroke-width="1" fill="none" fill-rule="evenodd">
        <g id="basic-/-phone">
            <mask id="mask-2" fill="white">
                <use xlink:href="#path-1"></use>
            </mask>
            <g id="basic-/-phone-(Background/Mask)"></g>
            <path d="M16.2929668,12.2930059 L14.6989679,13.8870058 C13.9599679,13.6670058 12.5809674,13.167006 11.7069674,12.2930059 C10.8329673,11.4190059 10.3329675,10.0400054 10.1129675,9.30100536 L11.7069674,7.7070055 C12.0979674,7.3160055 12.0979674,6.68400595 11.7069674,6.29300594 L7.70696735,2.29300585 C7.31596735,1.90200585 6.6839678,1.90200585 6.2929678,2.29300585 L3.58096772,5.00500607 C3.20096773,5.38500607 2.98696752,5.90700579 2.99496752,6.44000578 C3.01796752,7.8640058 3.39496779,12.8100059 7.2929678,16.7080059 C11.1909678,20.6060059 16.1369679,20.9820062 17.5619678,21.0060062 C17.5669678,21.0060062 17.5849677,21.0060062 17.5899677,21.0060062 C18.1179677,21.0060062 18.6169684,20.7980058 18.9949684,20.4200058 L21.7069683,17.7080059 C22.0979683,17.3170059 22.0979683,16.6850064 21.7069683,16.2940063 L17.7069683,12.2930059 C17.3159683,11.9020059 16.6839668,11.9020059 16.2929668,12.2930059 Z M8.70696735,15.2930059 C5.34096742,11.927006 5.01496746,7.64200592 4.99496746,6.41900587 L6.99996758,4.41400599 L9.58596802,7.00000572 L8.2929678,8.29300594 C8.0539678,8.53100595 7.95196749,8.87500563 8.02096748,9.20500565 C8.04496748,9.32000565 8.63196743,12.0470055 10.2919674,13.7070055 C11.9519674,15.3670055 14.6789672,15.9540054 14.7939672,15.9780054 C15.1269673,16.0490054 15.4679679,15.9460055 15.7059679,15.7070055 L16.9999676,14.4140053 L19.585968,17.0000057 L17.5799675,19.0050049 C16.3319675,18.9840049 12.0619674,18.6490059 8.70696735,15.2930059 Z" fill="#C0CBD2" mask="url(#mask-2)"></path>
        </g>
    </g>
</svg>