<?xml version="1.0" encoding="UTF-8"?>
<svg width="24px" height="24px" viewBox="0 0 24 24" version="1.1" xmlns="http://www.w3.org/2000/svg" xmlns:xlink="http://www.w3.org/1999/xlink">
    <title>user / user_voice</title>
    <defs>
        <rect id="path-1" x="0" y="0" width="24" height="24"></rect>
    </defs>
    <g id="Symbols" stroke="none" stroke-width="1" fill="none" fill-rule="evenodd">
        <g id="user-/-user_voice">
            <mask id="mask-2" fill="white">
                <use xlink:href="#path-1"></use>
            </mask>
            <g id="user-/-user_voice-(Background/Mask)"></g>
            <path d="M16.9500008,4.0499866 C18.2710009,5.37298656 19,7.13098669 19,8.99998665 C19,10.8689861 18.2710009,12.6269865 16.9500008,13.9499865 L18.3640003,15.363987 C20.0640011,13.6629868 21,11.4029865 21,8.99998665 C21,6.59698653 20.0640011,4.3369863 18.3640003,2.63598633 L16.9500008,4.0499866 Z M14.1209717,6.87998915 C14.6879721,7.4449892 14.9999714,8.19798899 14.9999714,8.99998903 C14.9999714,9.80198908 14.6879721,10.5549889 14.1209717,11.1199894 L15.5349712,12.5359898 C16.4789715,11.5919895 16.9999714,10.3369889 16.9999714,8.99998903 C16.9999714,7.66298914 16.4789715,6.40798926 15.5349712,5.46398926 L14.1209717,6.87998915 Z M12,8 C12,10.2091389 10.2091389,12 8,12 C5.79086113,12 4,10.2091389 4,8 C4,5.79086113 5.79086113,4 8,4 C10.2091389,4 12,5.79086113 12,8 C12,9.47275925 12,9.47275925 12,8 Z M10,8 C10,9.10456944 9.10456944,10 8,10 C6.89543056,10 6,9.10456944 6,8 C6,6.89543056 6.89543056,6 8,6 C9.10456944,6 10,6.89543056 10,8 C10,8.73637962 10,8.73637962 10,8 Z M14,19 C14,15.6862915 11.3137083,13 8,13 C4.68629146,13 2,15.6862915 2,19 L4,19 C4,16.7908609 5.79086089,15 8,15 C10.2091389,15 12,16.7908609 12,19 L14,19 Z" fill="#008BFF" mask="url(#mask-2)"></path>
        </g>
    </g>
</svg>